<?xml version="1.0" ?>

<!-- Uploaded to: SVG Repo, www.svgrepo.com, Generator: SVG Repo Mixer Tools -->
<svg fill="red" width="48" height="48" viewBox="0 0 32.311 32.311" xmlns="http://www.w3.org/2000/svg">

<g transform="translate(-96.951 -642.343)">

<path fill="red" d="M125.2,644.343a2.062,2.062,0,0,1,2.06,2.059v24.191a2.062,2.062,0,0,1-2.06,2.06H101.011a2.063,2.063,0,0,1-2.06-2.06V646.4a2.063,2.063,0,0,1,2.06-2.059H125.2m0-2H101.011a4.059,4.059,0,0,0-4.06,4.059v24.191a4.06,4.06,0,0,0,4.06,4.06H125.2a4.06,4.06,0,0,0,4.06-4.06V646.4a4.059,4.059,0,0,0-4.06-4.059Z"/>

<path d="M120.862,667.253a1,1,0,0,1-.707-.293l-15.511-15.51a1,1,0,0,1,1.414-1.414l15.511,15.51a1,1,0,0,1-.707,1.707Z"/>

<path d="M105.351,667.253a1,1,0,0,1-.707-1.707l15.511-15.51a1,1,0,0,1,1.414,1.414l-15.511,15.51A1,1,0,0,1,105.351,667.253Z"/>

</g>

</svg>